<svg width="0" height="0">
	<defs>
		<clipPath id="mask" clipPathUnits="objectBoundingBox" transform="scale(3, 1)">
			<path d="M.316.325V.324L.314.314.312.308V.307v.001L.307.295.302.286A.014.014 0 0 0 .3.28L.297.271A.036.036 0 0 1 .293.262L.291.257A.049.049 0 0 1 .288.25L.283.237.278.224.273.209.266.196.259.183C.256.179.251.177.248.174A.058.058 0 0 0 .219.165L.214.164.208.161.197.153C.196.152.195.151.196.15L.197.144C.198.141.197.136.196.133L.195.129.194.126C.195.125.196.122.195.12V.118L.196.115C.197.113.196.11.195.108H.2C.202.108.201.105.2.104L.198.101C.196.097.198.098.201.098.205.097.205.09.205.086L.204.081.205.079A.004.004 0 0 0 .209.075L.207.071.208.068C.209.064.207.06.205.057.202.053.199.05.198.045L.194.029A.05.05 0 0 0 .178.006.021.021 0 0 0 .166.002L.158.001.151.002H.147L.141 0a.059.059 0 0 0-.014.002.06.06 0 0 0-.023.014.038.038 0 0 0-.009.013C.093.036.093.042.093.048L.092.069c0 .006 0 .012.004.017a.012.012 0 0 0 .005.005l.004.004.003.008h.001L.11.107c.003.006.008.01.011.015l.003.003.005.006v.003C.128.133.127.136.128.137c-.004 0-.002.008-.002.01L.125.156a.05.05 0 0 1-.008.007L.108.166.104.169H.099c-.008 0-.015 0-.022.004a.03.03 0 0 0-.014.011C.059.19.057.196.054.203a.18.18 0 0 1-.008.021L.042.246c0-.003-.001.001-.001.002L.04.253.034.274C.033.279.032.285.029.29L.027.296v.001a.002.002 0 0 0-.002.002L.024.3v.001l.001.001c.002.001 0 .004-.001.006C.021.311.019.313.018.317a.036.036 0 0 0-.002.01v.005a.009.009 0 0 1 .001.005l.004.007.004.005.003.006c.003.006.009.011.014.016a.054.054 0 0 0 .022.015l.002.001-.001.007L.064.4.063.406l-.001.01-.001.011L.06.434.059.445.058.456.057.474v.005L.056.486.054.533C.053.556.052.58.053.603v.02L.052.636l.001.035-.001.057-.001.028L.05.77v.008L.049.779H.05v.002L.048.802.046.83.041.884.04.909C.04.913.038.915.037.918a.01.01 0 0 0 .001.009c0 .001.004.007.005.006l.005.004.004.001v.001c0 .002.002.003.003.005v.003L.058.95.06.951l.001.001.006.014C.068.97.061.97.06.974.059.979.067.98.07.98a.02.02 0 0 1 .008.001l.004.001.002.002h.001l.007.003.009.003c.006.001.012.002.018.005a.105.105 0 0 0 .017.004L.14 1h.005L.15.999.158.998.161.997.162.996.166.995.172.994.176.993c.006 0 .012.003.018.004H.216V.996L.223.994.226.992h.008L.236.991h.005C.245.991.249.99.253.992L.254.988.256.98.258.965c.001.002.004.003.006.004h.012L.278.968C.279.968.279.969.28.967L.279.959l.006.003L.284.958.283.947V.936A.199.199 0 0 0 .28.887V.886L.279.885V.881L.278.868C.275.858.275.849.273.839A1.273 1.273 0 0 0 .265.778L.262.752.258.72.256.688.255.684.253.669V.658L.252.646.251.623.25.614.249.603V.593L.248.592h.001L.248.575.247.557A.435.435 0 0 0 .243.503V.491L.241.473V.466L.24.459.239.445A.088.088 0 0 1 .237.429L.235.418V.415L.233.407A.164.164 0 0 1 .23.396L.223.379.222.375C.232.373.242.373.253.37L.269.366A.017.017 0 0 0 .282.361L.296.353.301.348c.001 0 0 0 0 0 .001 0 0 0 0 0h.001L.309.344.314.34.315.338C.318.335.317.329.316.325ZM.273.21v.001L.272.209.273.21ZM.195.151H.194h.001ZM.017.334l.001.003L.017.334Zm.026.598.001.001L.043.932ZM.06.322V.314L.061.313.065.305.07.292.071.289A.008.008 0 0 0 .073.284V.283L.074.282v.001l.003.005.002.004C.08.294.082.297.082.3l.001.006v.016L.082.325v.001c0 .003-.001.007-.003.009v.002L.078.338.077.341a.002.002 0 0 1-.002.002L.07.339.063.334.059.331.058.33V.328C.058.325.062.325.06.322ZM.226.251.23.248l.006.006a.15.15 0 0 1 .015.024l.005.008c0 .002.003.008.005.008l.004.008A.03.03 0 0 0 .269.31C.267.31.267.312.268.314.268.316.261.317.26.318L.25.321.245.322C.243.323.243.322.241.321.239.319.236.323.233.324.23.326.225.324.221.325L.218.327H.213l-.01.001L.202.327H.201h.001L.201.326V.315L.202.308.205.3V.292L.213.27A.01.01 0 0 0 .215.265L.218.259A.057.057 0 0 0 .225.251h.001Z" />
		</clipPath>
	</defs>
</svg>
