<?xml version="1.0" encoding="UTF-8" standalone="no"?>
<!DOCTYPE svg PUBLIC "-//W3C//DTD SVG 1.1//EN" "http://www.w3.org/Graphics/SVG/1.1/DTD/svg11.dtd">
<svg width="100%" height="100%" viewBox="0 0 1825 720" version="1.1" xmlns="http://www.w3.org/2000/svg" xmlns:xlink="http://www.w3.org/1999/xlink" xml:space="preserve" xmlns:serif="http://www.serif.com/" style="fill-rule:evenodd;clip-rule:evenodd;stroke-linejoin:round;stroke-miterlimit:1.41421;">
    <g id="Layer-1" serif:id="Layer 1" transform="matrix(1,0,0,1,712.5,235)">
        <g transform="matrix(1,0,0,1,-1050,-500)">
            <path d="M465.909,825.85L339.2,825.85L339.2,462.77L452.194,462.77C503.686,462.77 541.062,470.097 564.324,484.751C587.583,499.401 599.216,522.707 599.216,554.659C599.216,576.349 594.122,594.144 583.941,608.049C573.757,621.959 560.225,630.321 543.338,633.135L543.338,635.618C553.577,637.903 562.548,641.073 570.249,645.128L528.281,717.819C528.385,716.208 528.437,714.553 528.437,712.853C528.437,682.721 506.911,667.657 463.867,667.656L416.184,667.656L416.184,762.275L466.351,762.275C483.762,762.275 497.433,759.537 507.358,754.058L465.909,825.85ZM761.53,536.271C794.565,491.229 847.873,461.988 908.014,461.988C1008.27,461.988 1089.55,543.263 1089.55,643.528C1089.55,737.155 1018.68,814.221 927.658,824.014L888.331,755.897C894.725,757.01 901.302,757.59 908.014,757.59C971.012,757.59 1022.08,706.522 1022.08,643.528C1022.08,580.53 971.012,529.463 908.014,529.463C858.776,529.463 816.823,560.661 800.847,604.371L761.53,536.271ZM456.667,525.848L416.184,525.848L416.184,606.561L460.89,606.561C481.749,606.561 496.857,603.333 506.21,596.874C515.562,590.418 520.243,579.74 520.243,564.839C520.243,550.933 515.152,540.96 504.968,534.911C494.787,528.873 478.685,525.848 456.667,525.848Z"/>
        </g>
        <g transform="matrix(3.6308,0,0,3.6308,-402.996,61.8029)">
            <path d="M0,24L13.856,0L27.712,24L0,24Z" style="fill-rule:nonzero;"/>
        </g>
        <g transform="matrix(3.6308,0,0,3.6308,-379.564,-222.319)">
            <path d="M0,50.387L-0.108,47.582C-0.432,42.079 1.403,36.468 6.258,30.642C9.711,26.541 12.516,23.089 12.516,19.421C12.516,15.644 10.034,13.162 4.639,12.948C1.079,12.948 -3.237,14.242 -6.042,16.184L-9.71,4.423C-5.827,2.158 0.647,0 8.309,0C22.551,0 29.024,7.876 29.024,16.831C29.024,25.032 23.953,30.426 19.853,34.958C15.86,39.382 14.242,43.59 14.351,48.445L14.351,50.387L0,50.387Z" style="fill-rule:nonzero;"/>
        </g>
        <g transform="matrix(14.0715,0,0,14.0715,-910.667,-58.6424)">
            <text x="65.646px" y="27.267px" style="font-family:'OpenSans-Bold', 'Open Sans', sans-serif;font-weight:700;font-size:36px;fill:rgb(204,204,204);">L</text>
            <text x="83.212px" y="27.267px" style="font-family:'OpenSans-Bold', 'Open Sans', sans-serif;font-weight:700;font-size:36px;fill:rgb(204,204,204);">A</text>
            <text x="104.737px" y="27.267px" style="font-family:'OpenSans-Bold', 'Open Sans', sans-serif;font-weight:700;font-size:36px;fill:rgb(204,204,204);">B</text>
            <text x="125.253px" y="27.267px" style="font-family:'OpenSans-Bold', 'Open Sans', sans-serif;font-weight:700;font-size:36px;fill:rgb(204,204,204);">S</text>
        </g>
    </g>
</svg>
